<svg width="27" height="27" viewBox="0 0 27 27" fill="none" xmlns="http://www.w3.org/2000/svg">
<g clip-path="url(#clip0_927_121595)">
<path d="M13.5 27C20.9558 27 27 20.9558 27 13.5C27 6.04416 20.9558 0 13.5 0C6.04416 0 0 6.04416 0 13.5C0 20.9558 6.04416 27 13.5 27Z" fill="#1B84E7"/>
<path d="M16.75 20C16.7167 19.8667 16.6833 19.6583 16.65 19.375C16.6167 19.075 16.5833 18.6917 16.55 18.225C16.2 18.8417 15.6583 19.3417 14.925 19.725C14.1917 20.1083 13.35 20.3 12.4 20.3C11.05 20.3 9.97498 19.9583 9.17498 19.275C8.37498 18.575 7.97498 17.6417 7.97498 16.475C7.97498 15.3083 8.37498 14.375 9.17498 13.675C9.99165 12.975 11.075 12.625 12.425 12.625H16.525V12.125C16.525 11.1083 16.25 10.375 15.7 9.925C15.15 9.45833 14.4 9.225 13.45 9.225C11.7667 9.225 10.6083 9.89167 9.97498 11.225L8.42498 10.325C8.90831 9.375 9.58331 8.66667 10.45 8.2C11.3167 7.73333 12.35 7.5 13.55 7.5C15.0333 7.5 16.2333 7.875 17.15 8.625C18.0667 9.375 18.525 10.575 18.525 12.225V17.55C18.525 18.0167 18.5417 18.4917 18.575 18.975C18.625 19.4417 18.6833 19.7833 18.75 20H16.75ZM16.525 14.175H12.875C11.975 14.175 11.275 14.375 10.775 14.775C10.2917 15.175 10.05 15.7333 10.05 16.45C10.05 17.1667 10.2917 17.7167 10.775 18.1C11.275 18.4833 11.95 18.675 12.8 18.675C13.95 18.675 14.8583 18.3083 15.525 17.575C16.1917 16.8417 16.525 15.825 16.525 14.525V14.175Z" fill="white"/>
</g>
<defs>
<clipPath id="clip0_927_121595">
<rect width="27" height="27" fill="white"/>
</clipPath>
</defs>
</svg>
